<svg data-bbox="6.3 27 187.7 145" xmlns="http://www.w3.org/2000/svg" viewBox="6.3 27 187.7 145" aria-hidden="true"><path d="M176.1 70H170v-8H58v35.8c0 2.8.8 5.4 1.2 8.1-17.6 3-26.4 13.5-26.8 14.1-.6.8-.6 1.8-.1 2.6l1.1 1.9c-12.2 3-16.9 13.1-17.1 13.6-.4.9-.2 1.9.5 2.6l1.7 1.7c-6.1 6.6-10.9 15.3-11.1 15.7-1.7 3-1.4 7.6.7 10.3l.4.5c1.5 2 3.9 3.1 6.3 3.1 1.2 0 2.5-.3 3.6-.9.1 0 6.9-3.7 20.6-8.4l2.7 2.7c.4.4 1 .7 1.6.7.2 0 .3 0 .5-.1l13.2-2.8.4.6c.4.7 1.2 1.1 2 1.1h18.2c.8 0 1.6-.4 2-1.1l1-1.7 13.1 2.8c.2 0 .3.1.5.1.6 0 1.2-.2 1.6-.7l2.6-2.6c13.3 4.5 20.3 8.3 20.4 8.3 1.1.6 2.4.9 3.6.9 2.4 0 4.8-1.1 6.3-3.1l.4-.5c2-2.8 2.3-7.3.7-10.3-.1-.2-1.4-2.2-3.5-5.4C147 146 165 129 170 109h6c10 0 18-9.5 18-19.5S185 70 176.1 70zM62 66h104v15H62V66zM16 166.9c-1.2.7-3 .3-3.9-.9l-.4-.5c-1-1.3-1.1-3.9-.3-5.3.1-.1 4.7-8.5 10.4-14.7l13.4 13.4c-12.6 4.5-18.9 7.9-19.2 8zm27.9-5.7-22.6-22.7c1.6-2.7 6.1-8.4 14.6-9.9L54.3 159l-10.4 2.2zm32.2-1.3H60.5l-23.4-38.5c3.1-3.2 13.1-11.8 31.2-11.8 18.2 0 28.1 8.5 31.2 11.7l-23.4 38.6zm17.2.1L83 157.9l18.4-30.4c8.5 1.5 12.9 7.2 14.5 9.9L93.3 160zm31.9 4.4-.4.5c-.8 1.1-2.6 1.5-3.9.9-.3-.2-6.7-3.6-18.9-7.9l13.3-13.4c5.6 6.2 10.2 14.5 10.2 14.5.8 1.6.6 4.1-.3 5.4zm-2-16.5c-1.4-1.9-3.2-4.8-4.8-6.6l1.9-1.8c.7-.7.9-1.7.5-2.6-.2-.5-4.8-10.5-17-13.6l.5-.8c.5-.8.4-1.9-.1-2.6-.5-.6-11.6-14.9-35.9-14.9-1.7 0-3.7.1-5.3.2-.4-2.5-1-4.9-1-7.5V85h104v20c0 14-17.6 37.9-42.8 42.9zM176 104h-6V75h6c7.4 0 13 7.4 13 14.7 0 7.4-5.6 14-13 14.3zM128 55v-3c0-5.2 1.3-7.6 2.9-10.4 2.1-3.4 3.8-6.7 3.8-12.6 0-1-.9-1.9-1.9-1.9s-1.8.9-1.8 1.8c0 5.2-1.5 7.8-3.2 10.6-2.1 3.4-3.8 6.9-3.8 12.8v2.6h4zM116 55v-2.7c0-5.2 1.5-8 3.2-10.8 2.1-3.4 3.8-6.7 3.8-12.6 0-1-.9-1.9-1.9-1.9s-1.9.9-1.9 1.8c0 5.2-1.5 7.8-3.2 10.6-2 3.4-4 6.7-4 12.6v3h4zM104 55v-3c0-5.2 2.2-7.4 3.8-10.2 2.1-3.4 3.8-6.7 3.8-12.6 0-1-.9-1.9-1.9-1.9s-1.9.9-1.9 1.8c0 5.2-1.5 7.8-3.2 10.6-2.1 3.4-4.7 6.3-4.7 12.2 0 1.3-.1 1.3 0 3h4.1z"/></svg>